<svg width="298" height="94" viewBox="0 0 298 94" fill="none" xmlns="http://www.w3.org/2000/svg">
<g filter="url(#filter0_b_0_39)">
<path d="M0 0H274C287.255 0 298 10.7452 298 24V70C298 83.2548 287.255 94 274 94H0V0Z" fill="white" fill-opacity="0.2"/>
</g>
<path d="M49.85 62.97V84.03H44.72V71.4L40.01 84.03H35.87L31.13 71.37V84.03H26V62.97H32.06L37.97 77.55L43.82 62.97H49.85Z" fill="url(#paint0_linear_0_39)"/>
<path d="M56.1191 65.55C55.2191 65.55 54.4791 65.29 53.8991 64.77C53.3391 64.23 53.0591 63.57 53.0591 62.79C53.0591 61.99 53.3391 61.33 53.8991 60.81C54.4791 60.27 55.2191 60 56.1191 60C56.9991 60 57.7191 60.27 58.2791 60.81C58.8591 61.33 59.1491 61.99 59.1491 62.79C59.1491 63.57 58.8591 64.23 58.2791 64.77C57.7191 65.29 56.9991 65.55 56.1191 65.55ZM58.6691 67.29V84.03H53.5391V67.29H58.6691Z" fill="url(#paint1_linear_0_39)"/>
<path d="M69.1967 84.27C67.7367 84.27 66.4367 84.02 65.2967 83.52C64.1567 83.02 63.2567 82.34 62.5967 81.48C61.9367 80.6 61.5667 79.62 61.4867 78.54H66.5567C66.6167 79.12 66.8867 79.59 67.3667 79.95C67.8467 80.31 68.4367 80.49 69.1367 80.49C69.7767 80.49 70.2667 80.37 70.6067 80.13C70.9667 79.87 71.1467 79.54 71.1467 79.14C71.1467 78.66 70.8967 78.31 70.3967 78.09C69.8967 77.85 69.0867 77.59 67.9667 77.31C66.7667 77.03 65.7667 76.74 64.9667 76.44C64.1667 76.12 63.4767 75.63 62.8967 74.97C62.3167 74.29 62.0267 73.38 62.0267 72.24C62.0267 71.28 62.2867 70.41 62.8067 69.63C63.3467 68.83 64.1267 68.2 65.1467 67.74C66.1867 67.28 67.4167 67.05 68.8367 67.05C70.9367 67.05 72.5867 67.57 73.7867 68.61C75.0067 69.65 75.7067 71.03 75.8867 72.75H71.1467C71.0667 72.17 70.8067 71.71 70.3667 71.37C69.9467 71.03 69.3867 70.86 68.6867 70.86C68.0867 70.86 67.6267 70.98 67.3067 71.22C66.9867 71.44 66.8267 71.75 66.8267 72.15C66.8267 72.63 67.0767 72.99 67.5767 73.23C68.0967 73.47 68.8967 73.71 69.9767 73.95C71.2167 74.27 72.2267 74.59 73.0067 74.91C73.7867 75.21 74.4667 75.71 75.0467 76.41C75.6467 77.09 75.9567 78.01 75.9767 79.17C75.9767 80.15 75.6967 81.03 75.1367 81.81C74.5967 82.57 73.8067 83.17 72.7667 83.61C71.7467 84.05 70.5567 84.27 69.1967 84.27Z" fill="url(#paint2_linear_0_39)"/>
<path d="M85.9252 84.27C84.4652 84.27 83.1652 84.02 82.0252 83.52C80.8852 83.02 79.9852 82.34 79.3252 81.48C78.6652 80.6 78.2952 79.62 78.2152 78.54H83.2852C83.3452 79.12 83.6152 79.59 84.0952 79.95C84.5752 80.31 85.1652 80.49 85.8652 80.49C86.5052 80.49 86.9952 80.37 87.3352 80.13C87.6952 79.87 87.8752 79.54 87.8752 79.14C87.8752 78.66 87.6252 78.31 87.1252 78.09C86.6252 77.85 85.8152 77.59 84.6952 77.31C83.4952 77.03 82.4952 76.74 81.6952 76.44C80.8952 76.12 80.2052 75.63 79.6252 74.97C79.0452 74.29 78.7552 73.38 78.7552 72.24C78.7552 71.28 79.0152 70.41 79.5352 69.63C80.0752 68.83 80.8552 68.2 81.8752 67.74C82.9152 67.28 84.1452 67.05 85.5652 67.05C87.6652 67.05 89.3152 67.57 90.5152 68.61C91.7352 69.65 92.4352 71.03 92.6152 72.75H87.8752C87.7952 72.17 87.5352 71.71 87.0952 71.37C86.6752 71.03 86.1152 70.86 85.4152 70.86C84.8152 70.86 84.3552 70.98 84.0352 71.22C83.7152 71.44 83.5552 71.75 83.5552 72.15C83.5552 72.63 83.8052 72.99 84.3052 73.23C84.8252 73.47 85.6252 73.71 86.7052 73.95C87.9452 74.27 88.9552 74.59 89.7352 74.91C90.5152 75.21 91.1952 75.71 91.7752 76.41C92.3752 77.09 92.6852 78.01 92.7052 79.17C92.7052 80.15 92.4252 81.03 91.8652 81.81C91.3252 82.57 90.5352 83.17 89.4952 83.61C88.4752 84.05 87.2852 84.27 85.9252 84.27Z" fill="url(#paint3_linear_0_39)"/>
<path d="M98.4238 65.55C97.5238 65.55 96.7838 65.29 96.2038 64.77C95.6438 64.23 95.3637 63.57 95.3637 62.79C95.3637 61.99 95.6438 61.33 96.2038 60.81C96.7838 60.27 97.5238 60 98.4238 60C99.3037 60 100.024 60.27 100.584 60.81C101.164 61.33 101.454 61.99 101.454 62.79C101.454 63.57 101.164 64.23 100.584 64.77C100.024 65.29 99.3037 65.55 98.4238 65.55ZM100.974 67.29V84.03H95.8438V67.29H100.974Z" fill="url(#paint4_linear_0_39)"/>
<path d="M112.311 84.27C110.671 84.27 109.191 83.92 107.871 83.22C106.571 82.52 105.541 81.52 104.781 80.22C104.041 78.92 103.671 77.4 103.671 75.66C103.671 73.94 104.051 72.43 104.811 71.13C105.571 69.81 106.611 68.8 107.931 68.1C109.251 67.4 110.731 67.05 112.371 67.05C114.011 67.05 115.491 67.4 116.811 68.1C118.131 68.8 119.171 69.81 119.931 71.13C120.691 72.43 121.071 73.94 121.071 75.66C121.071 77.38 120.681 78.9 119.901 80.22C119.141 81.52 118.091 82.52 116.751 83.22C115.431 83.92 113.951 84.27 112.311 84.27ZM112.311 79.83C113.291 79.83 114.121 79.47 114.801 78.75C115.501 78.03 115.851 77 115.851 75.66C115.851 74.32 115.511 73.29 114.831 72.57C114.171 71.85 113.351 71.49 112.371 71.49C111.371 71.49 110.541 71.85 109.881 72.57C109.221 73.27 108.891 74.3 108.891 75.66C108.891 77 109.211 78.03 109.851 78.75C110.511 79.47 111.331 79.83 112.311 79.83Z" fill="url(#paint5_linear_0_39)"/>
<path d="M133.993 67.11C135.953 67.11 137.513 67.75 138.673 69.03C139.853 70.29 140.443 72.03 140.443 74.25V84.03H135.343V74.94C135.343 73.82 135.053 72.95 134.473 72.33C133.893 71.71 133.113 71.4 132.133 71.4C131.153 71.4 130.373 71.71 129.793 72.33C129.213 72.95 128.923 73.82 128.923 74.94V84.03H123.793V67.29H128.923V69.51C129.443 68.77 130.143 68.19 131.023 67.77C131.903 67.33 132.893 67.11 133.993 67.11Z" fill="url(#paint6_linear_0_39)"/>
<path d="M159.695 79.68V84.03H157.085C155.225 84.03 153.775 83.58 152.735 82.68C151.695 81.76 151.175 80.27 151.175 78.21V71.55H149.135V67.29H151.175V63.21H156.305V67.29H159.665V71.55H156.305V78.27C156.305 78.77 156.425 79.13 156.665 79.35C156.905 79.57 157.305 79.68 157.865 79.68H159.695Z" fill="url(#paint7_linear_0_39)"/>
<path d="M170.173 84.27C168.533 84.27 167.053 83.92 165.733 83.22C164.433 82.52 163.403 81.52 162.643 80.22C161.903 78.92 161.533 77.4 161.533 75.66C161.533 73.94 161.913 72.43 162.673 71.13C163.433 69.81 164.473 68.8 165.793 68.1C167.113 67.4 168.593 67.05 170.233 67.05C171.873 67.05 173.353 67.4 174.673 68.1C175.993 68.8 177.033 69.81 177.793 71.13C178.553 72.43 178.933 73.94 178.933 75.66C178.933 77.38 178.543 78.9 177.763 80.22C177.003 81.52 175.953 82.52 174.613 83.22C173.293 83.92 171.813 84.27 170.173 84.27ZM170.173 79.83C171.153 79.83 171.983 79.47 172.663 78.75C173.363 78.03 173.713 77 173.713 75.66C173.713 74.32 173.373 73.29 172.693 72.57C172.033 71.85 171.213 71.49 170.233 71.49C169.233 71.49 168.403 71.85 167.743 72.57C167.083 73.27 166.753 74.3 166.753 75.66C166.753 77 167.073 78.03 167.713 78.75C168.373 79.47 169.193 79.83 170.173 79.83Z" fill="url(#paint8_linear_0_39)"/>
<path d="M211.862 62.97V84.03H206.732V71.4L202.022 84.03H197.882L193.142 71.37V84.03H188.012V62.97H194.072L199.982 77.55L205.832 62.97H211.862Z" fill="url(#paint9_linear_0_39)"/>
<path d="M228.661 80.31H220.801L219.541 84.03H214.171L221.791 62.97H227.731L235.351 84.03H229.921L228.661 80.31ZM227.341 76.35L224.731 68.64L222.151 76.35H227.341Z" fill="url(#paint10_linear_0_39)"/>
<path d="M248.41 84.03L244.03 76.08H242.8V84.03H237.67V62.97H246.28C247.94 62.97 249.35 63.26 250.51 63.84C251.69 64.42 252.57 65.22 253.15 66.24C253.73 67.24 254.02 68.36 254.02 69.6C254.02 71 253.62 72.25 252.82 73.35C252.04 74.45 250.88 75.23 249.34 75.69L254.2 84.03H248.41ZM242.8 72.45H245.98C246.92 72.45 247.62 72.22 248.08 71.76C248.56 71.3 248.8 70.65 248.8 69.81C248.8 69.01 248.56 68.38 248.08 67.92C247.62 67.46 246.92 67.23 245.98 67.23H242.8V72.45Z" fill="url(#paint11_linear_0_39)"/>
<path d="M264.86 84.24C263.32 84.24 261.94 83.99 260.72 83.49C259.5 82.99 258.52 82.25 257.78 81.27C257.06 80.29 256.68 79.11 256.64 77.73H262.1C262.18 78.51 262.45 79.11 262.91 79.53C263.37 79.93 263.97 80.13 264.71 80.13C265.47 80.13 266.07 79.96 266.51 79.62C266.95 79.26 267.17 78.77 267.17 78.15C267.17 77.63 266.99 77.2 266.63 76.86C266.29 76.52 265.86 76.24 265.34 76.02C264.84 75.8 264.12 75.55 263.18 75.27C261.82 74.85 260.71 74.43 259.85 74.01C258.99 73.59 258.25 72.97 257.63 72.15C257.01 71.33 256.7 70.26 256.7 68.94C256.7 66.98 257.41 65.45 258.83 64.35C260.25 63.23 262.1 62.67 264.38 62.67C266.7 62.67 268.57 63.23 269.99 64.35C271.41 65.45 272.17 66.99 272.27 68.97H266.72C266.68 68.29 266.43 67.76 265.97 67.38C265.51 66.98 264.92 66.78 264.2 66.78C263.58 66.78 263.08 66.95 262.7 67.29C262.32 67.61 262.13 68.08 262.13 68.7C262.13 69.38 262.45 69.91 263.09 70.29C263.73 70.67 264.73 71.08 266.09 71.52C267.45 71.98 268.55 72.42 269.39 72.84C270.25 73.26 270.99 73.87 271.61 74.67C272.23 75.47 272.54 76.5 272.54 77.76C272.54 78.96 272.23 80.05 271.61 81.03C271.01 82.01 270.13 82.79 268.97 83.37C267.81 83.95 266.44 84.24 264.86 84.24Z" fill="url(#paint12_linear_0_39)"/>
<mask id="path-3-outside-1_0_39" maskUnits="userSpaceOnUse" x="25" y="8" width="193" height="45" fill="black">
<rect fill="white" x="25" y="8" width="193" height="45"/>
<path d="M54.5145 26.2744C54.5145 28.4359 54.017 30.4203 53.0221 32.2274C52.0272 33.9992 50.4994 35.4343 48.4385 36.5328C46.3776 37.6312 43.8193 38.1805 40.7636 38.1805H35.114V51.5748H26V14.2621H40.7636C43.7483 14.2621 46.271 14.7759 48.3319 15.8035C50.3928 16.8311 51.9384 18.2485 52.9688 20.0556C53.9993 21.8628 54.5145 23.9357 54.5145 26.2744ZM40.0707 30.9518C41.8118 30.9518 43.1087 30.5443 43.9615 29.7293C44.8142 28.9143 45.2406 27.7627 45.2406 26.2744C45.2406 24.7862 44.8142 23.6345 43.9615 22.8195C43.1087 22.0045 41.8118 21.597 40.0707 21.597H35.114V30.9518H40.0707Z"/>
<path d="M68.3732 26.8591C69.4392 25.2291 70.7717 23.9534 72.3706 23.0321C73.9695 22.0754 75.7461 21.597 77.7004 21.597V31.2176H75.1954C72.9213 31.2176 71.2158 31.7136 70.0788 32.7058C68.9418 33.6625 68.3732 35.3634 68.3732 37.8084V51.5748H59.2593V21.9159H68.3732V26.8591Z"/>
<path d="M86.6403 18.8331C85.0414 18.8331 83.7267 18.3725 82.6963 17.4512C81.7014 16.4944 81.2039 15.3251 81.2039 13.9431C81.2039 12.5258 81.7014 11.3564 82.6963 10.4351C83.7267 9.47837 85.0414 9 86.6403 9C88.2037 9 89.4829 9.47837 90.4778 10.4351C91.5082 11.3564 92.0234 12.5258 92.0234 13.9431C92.0234 15.3251 91.5082 16.4944 90.4778 17.4512C89.4829 18.3725 88.2037 18.8331 86.6403 18.8331ZM91.1707 21.9159V51.5748H82.0567V21.9159H91.1707Z"/>
<path d="M111.153 43.0705L117.602 21.9159H127.303L116.75 51.5748H105.504L94.9507 21.9159H104.704L111.153 43.0705Z"/>
<path d="M129.327 36.6922C129.327 33.6448 129.895 30.9695 131.032 28.6663C132.205 26.363 133.786 24.5913 135.776 23.3511C137.766 22.1108 139.986 21.4907 142.438 21.4907C144.534 21.4907 146.364 21.9159 147.928 22.7664C149.527 23.6168 150.753 24.733 151.605 26.115V21.9159H160.719V51.5748H151.605V47.3758C150.717 48.7577 149.473 49.8739 147.874 50.7244C146.311 51.5748 144.481 52 142.385 52C139.969 52 137.766 51.3799 135.776 50.1397C133.786 48.864 132.205 47.0746 131.032 44.7713C129.895 42.4326 129.327 39.7396 129.327 36.6922ZM151.605 36.7454C151.605 34.4775 150.966 32.6881 149.687 31.377C148.443 30.0659 146.915 29.4104 145.103 29.4104C143.291 29.4104 141.745 30.0659 140.466 31.377C139.222 32.6527 138.601 34.4244 138.601 36.6922C138.601 38.96 139.222 40.7672 140.466 42.1137C141.745 43.4248 143.291 44.0803 145.103 44.0803C146.915 44.0803 148.443 43.4248 149.687 42.1137C150.966 40.8026 151.605 39.0132 151.605 36.7454Z"/>
<path d="M183.889 43.8677V51.5748H179.252C175.947 51.5748 173.371 50.7775 171.523 49.1829C169.676 47.5529 168.752 44.9131 168.752 41.2633V29.4635H165.128V21.9159H168.752V14.6873H177.866V21.9159H183.835V29.4635H177.866V41.3696C177.866 42.2555 178.079 42.8933 178.505 43.2831C178.932 43.6729 179.642 43.8677 180.637 43.8677H183.889Z"/>
<path d="M217 36.267C217 37.1174 216.947 38.0033 216.84 38.9246H196.214C196.356 40.7672 196.942 42.1846 197.973 43.1768C199.039 44.1335 200.335 44.6119 201.863 44.6119C204.137 44.6119 205.719 43.6551 206.607 41.7417H216.307C215.81 43.6906 214.904 45.4446 213.589 47.0037C212.31 48.5628 210.693 49.7853 208.739 50.6712C206.785 51.5571 204.599 52 202.183 52C199.27 52 196.676 51.3799 194.402 50.1397C192.128 48.8995 190.351 47.1277 189.072 44.8245C187.793 42.5212 187.153 39.8282 187.153 36.7454C187.153 33.6625 187.775 30.9695 189.018 28.6663C190.298 26.363 192.074 24.5913 194.348 23.3511C196.622 22.1108 199.234 21.4907 202.183 21.4907C205.061 21.4907 207.62 22.0931 209.858 23.2979C212.097 24.5027 213.838 26.2213 215.081 28.4536C216.36 30.686 217 33.2905 217 36.267ZM207.673 33.8752C207.673 32.316 207.14 31.0758 206.074 30.1545C205.008 29.2332 203.675 28.7726 202.077 28.7726C200.549 28.7726 199.252 29.2155 198.186 30.1014C197.155 30.9872 196.516 32.2452 196.267 33.8752H207.673Z"/>
</mask>
<path d="M54.5145 26.2744C54.5145 28.4359 54.017 30.4203 53.0221 32.2274C52.0272 33.9992 50.4994 35.4343 48.4385 36.5328C46.3776 37.6312 43.8193 38.1805 40.7636 38.1805H35.114V51.5748H26V14.2621H40.7636C43.7483 14.2621 46.271 14.7759 48.3319 15.8035C50.3928 16.8311 51.9384 18.2485 52.9688 20.0556C53.9993 21.8628 54.5145 23.9357 54.5145 26.2744ZM40.0707 30.9518C41.8118 30.9518 43.1087 30.5443 43.9615 29.7293C44.8142 28.9143 45.2406 27.7627 45.2406 26.2744C45.2406 24.7862 44.8142 23.6345 43.9615 22.8195C43.1087 22.0045 41.8118 21.597 40.0707 21.597H35.114V30.9518H40.0707Z" stroke="white" stroke-width="2" mask="url(#path-3-outside-1_0_39)"/>
<path d="M68.3732 26.8591C69.4392 25.2291 70.7717 23.9534 72.3706 23.0321C73.9695 22.0754 75.7461 21.597 77.7004 21.597V31.2176H75.1954C72.9213 31.2176 71.2158 31.7136 70.0788 32.7058C68.9418 33.6625 68.3732 35.3634 68.3732 37.8084V51.5748H59.2593V21.9159H68.3732V26.8591Z" stroke="white" stroke-width="2" mask="url(#path-3-outside-1_0_39)"/>
<path d="M86.6403 18.8331C85.0414 18.8331 83.7267 18.3725 82.6963 17.4512C81.7014 16.4944 81.2039 15.3251 81.2039 13.9431C81.2039 12.5258 81.7014 11.3564 82.6963 10.4351C83.7267 9.47837 85.0414 9 86.6403 9C88.2037 9 89.4829 9.47837 90.4778 10.4351C91.5082 11.3564 92.0234 12.5258 92.0234 13.9431C92.0234 15.3251 91.5082 16.4944 90.4778 17.4512C89.4829 18.3725 88.2037 18.8331 86.6403 18.8331ZM91.1707 21.9159V51.5748H82.0567V21.9159H91.1707Z" stroke="white" stroke-width="2" mask="url(#path-3-outside-1_0_39)"/>
<path d="M111.153 43.0705L117.602 21.9159H127.303L116.75 51.5748H105.504L94.9507 21.9159H104.704L111.153 43.0705Z" stroke="white" stroke-width="2" mask="url(#path-3-outside-1_0_39)"/>
<path d="M129.327 36.6922C129.327 33.6448 129.895 30.9695 131.032 28.6663C132.205 26.363 133.786 24.5913 135.776 23.3511C137.766 22.1108 139.986 21.4907 142.438 21.4907C144.534 21.4907 146.364 21.9159 147.928 22.7664C149.527 23.6168 150.753 24.733 151.605 26.115V21.9159H160.719V51.5748H151.605V47.3758C150.717 48.7577 149.473 49.8739 147.874 50.7244C146.311 51.5748 144.481 52 142.385 52C139.969 52 137.766 51.3799 135.776 50.1397C133.786 48.864 132.205 47.0746 131.032 44.7713C129.895 42.4326 129.327 39.7396 129.327 36.6922ZM151.605 36.7454C151.605 34.4775 150.966 32.6881 149.687 31.377C148.443 30.0659 146.915 29.4104 145.103 29.4104C143.291 29.4104 141.745 30.0659 140.466 31.377C139.222 32.6527 138.601 34.4244 138.601 36.6922C138.601 38.96 139.222 40.7672 140.466 42.1137C141.745 43.4248 143.291 44.0803 145.103 44.0803C146.915 44.0803 148.443 43.4248 149.687 42.1137C150.966 40.8026 151.605 39.0132 151.605 36.7454Z" stroke="white" stroke-width="2" mask="url(#path-3-outside-1_0_39)"/>
<path d="M183.889 43.8677V51.5748H179.252C175.947 51.5748 173.371 50.7775 171.523 49.1829C169.676 47.5529 168.752 44.9131 168.752 41.2633V29.4635H165.128V21.9159H168.752V14.6873H177.866V21.9159H183.835V29.4635H177.866V41.3696C177.866 42.2555 178.079 42.8933 178.505 43.2831C178.932 43.6729 179.642 43.8677 180.637 43.8677H183.889Z" stroke="white" stroke-width="2" mask="url(#path-3-outside-1_0_39)"/>
<path d="M217 36.267C217 37.1174 216.947 38.0033 216.84 38.9246H196.214C196.356 40.7672 196.942 42.1846 197.973 43.1768C199.039 44.1335 200.335 44.6119 201.863 44.6119C204.137 44.6119 205.719 43.6551 206.607 41.7417H216.307C215.81 43.6906 214.904 45.4446 213.589 47.0037C212.31 48.5628 210.693 49.7853 208.739 50.6712C206.785 51.5571 204.599 52 202.183 52C199.27 52 196.676 51.3799 194.402 50.1397C192.128 48.8995 190.351 47.1277 189.072 44.8245C187.793 42.5212 187.153 39.8282 187.153 36.7454C187.153 33.6625 187.775 30.9695 189.018 28.6663C190.298 26.363 192.074 24.5913 194.348 23.3511C196.622 22.1108 199.234 21.4907 202.183 21.4907C205.061 21.4907 207.62 22.0931 209.858 23.2979C212.097 24.5027 213.838 26.2213 215.081 28.4536C216.36 30.686 217 33.2905 217 36.267ZM207.673 33.8752C207.673 32.316 207.14 31.0758 206.074 30.1545C205.008 29.2332 203.675 28.7726 202.077 28.7726C200.549 28.7726 199.252 29.2155 198.186 30.1014C197.155 30.9872 196.516 32.2452 196.267 33.8752H207.673Z" stroke="white" stroke-width="2" mask="url(#path-3-outside-1_0_39)"/>
<defs>
<filter id="filter0_b_0_39" x="-22" y="-22" width="342" height="138" filterUnits="userSpaceOnUse" color-interpolation-filters="sRGB">
<feFlood flood-opacity="0" result="BackgroundImageFix"/>
<feGaussianBlur in="BackgroundImageFix" stdDeviation="11"/>
<feComposite in2="SourceAlpha" operator="in" result="effect1_backgroundBlur_0_39"/>
<feBlend mode="normal" in="SourceGraphic" in2="effect1_backgroundBlur_0_39" result="shape"/>
</filter>
<linearGradient id="paint0_linear_0_39" x1="10.0942" y1="60" x2="98.3976" y2="201.231" gradientUnits="userSpaceOnUse">
<stop stop-color="#FF8031"/>
<stop offset="1" stop-color="#FF5D3C"/>
</linearGradient>
<linearGradient id="paint1_linear_0_39" x1="10.0942" y1="60" x2="98.3976" y2="201.231" gradientUnits="userSpaceOnUse">
<stop stop-color="#FF8031"/>
<stop offset="1" stop-color="#FF5D3C"/>
</linearGradient>
<linearGradient id="paint2_linear_0_39" x1="10.0942" y1="60" x2="98.3976" y2="201.231" gradientUnits="userSpaceOnUse">
<stop stop-color="#FF8031"/>
<stop offset="1" stop-color="#FF5D3C"/>
</linearGradient>
<linearGradient id="paint3_linear_0_39" x1="10.0942" y1="60" x2="98.3976" y2="201.231" gradientUnits="userSpaceOnUse">
<stop stop-color="#FF8031"/>
<stop offset="1" stop-color="#FF5D3C"/>
</linearGradient>
<linearGradient id="paint4_linear_0_39" x1="10.0942" y1="60" x2="98.3976" y2="201.231" gradientUnits="userSpaceOnUse">
<stop stop-color="#FF8031"/>
<stop offset="1" stop-color="#FF5D3C"/>
</linearGradient>
<linearGradient id="paint5_linear_0_39" x1="10.0942" y1="60" x2="98.3976" y2="201.231" gradientUnits="userSpaceOnUse">
<stop stop-color="#FF8031"/>
<stop offset="1" stop-color="#FF5D3C"/>
</linearGradient>
<linearGradient id="paint6_linear_0_39" x1="10.0942" y1="60" x2="98.3976" y2="201.231" gradientUnits="userSpaceOnUse">
<stop stop-color="#FF8031"/>
<stop offset="1" stop-color="#FF5D3C"/>
</linearGradient>
<linearGradient id="paint7_linear_0_39" x1="10.0942" y1="60" x2="98.3976" y2="201.231" gradientUnits="userSpaceOnUse">
<stop stop-color="#FF8031"/>
<stop offset="1" stop-color="#FF5D3C"/>
</linearGradient>
<linearGradient id="paint8_linear_0_39" x1="10.0942" y1="60" x2="98.3976" y2="201.231" gradientUnits="userSpaceOnUse">
<stop stop-color="#FF8031"/>
<stop offset="1" stop-color="#FF5D3C"/>
</linearGradient>
<linearGradient id="paint9_linear_0_39" x1="10.0942" y1="60" x2="98.3976" y2="201.231" gradientUnits="userSpaceOnUse">
<stop stop-color="#FF8031"/>
<stop offset="1" stop-color="#FF5D3C"/>
</linearGradient>
<linearGradient id="paint10_linear_0_39" x1="10.0942" y1="60" x2="98.3976" y2="201.231" gradientUnits="userSpaceOnUse">
<stop stop-color="#FF8031"/>
<stop offset="1" stop-color="#FF5D3C"/>
</linearGradient>
<linearGradient id="paint11_linear_0_39" x1="10.0942" y1="60" x2="98.3976" y2="201.231" gradientUnits="userSpaceOnUse">
<stop stop-color="#FF8031"/>
<stop offset="1" stop-color="#FF5D3C"/>
</linearGradient>
<linearGradient id="paint12_linear_0_39" x1="10.0942" y1="60" x2="98.3976" y2="201.231" gradientUnits="userSpaceOnUse">
<stop stop-color="#FF8031"/>
<stop offset="1" stop-color="#FF5D3C"/>
</linearGradient>
</defs>
</svg>
